<svg width="19" height="17" viewBox="0 0 19 17" fill="none" xmlns="http://www.w3.org/2000/svg">
<path d="M5.08004 16C6.55874 16.0495 8.03235 15.8021 9.41378 15.2723C10.7952 14.7426 12.0565 13.9413 13.1229 12.9159C14.1894 11.8904 15.0395 10.6615 15.623 9.30193C16.2065 7.94232 16.5115 6.47954 16.52 5.00004C17.1977 4.16146 17.7009 3.19587 18 2.16004C18.0224 2.07821 18.0206 1.99166 17.9949 1.91082C17.9691 1.82998 17.9206 1.7583 17.8551 1.70441C17.7896 1.65052 17.7099 1.61672 17.6256 1.60707C17.5413 1.59743 17.456 1.61235 17.38 1.65004C17.0255 1.8207 16.6264 1.87582 16.2389 1.80765C15.8514 1.73948 15.495 1.55145 15.22 1.27004C14.869 0.885622 14.4444 0.575575 13.9713 0.358271C13.4982 0.140968 12.9863 0.0208309 12.466 0.00497798C11.9456 -0.010875 11.4274 0.0778791 10.942 0.265981C10.4566 0.454083 10.0138 0.737706 9.64004 1.10004C9.12824 1.5957 8.75336 2.21533 8.55185 2.89872C8.35034 3.5821 8.32905 4.306 8.49004 5.00004C5.14004 5.20004 2.84004 3.61004 1.00004 1.43004C0.944764 1.36745 0.872455 1.3223 0.791944 1.30011C0.711433 1.27793 0.626205 1.27967 0.546666 1.30512C0.467128 1.33057 0.396723 1.37864 0.344047 1.44344C0.291372 1.50824 0.258707 1.58698 0.250041 1.67004C-0.100489 3.61447 0.152371 5.61959 0.97466 7.41611C1.79695 9.21264 3.14929 10.7145 4.85004 11.72C3.70968 13.0279 2.10825 13.8447 0.380041 14C0.287454 14.0154 0.201983 14.0593 0.135593 14.1257C0.0692023 14.192 0.0252145 14.2774 0.00978526 14.37C-0.00564397 14.4626 0.00825779 14.5577 0.0495449 14.6419C0.090832 14.7262 0.157438 14.7955 0.240041 14.84C1.74356 15.5914 3.39927 15.9882 5.08004 16Z" fill="#FFEDD8"/>
</svg>
